<svg width="48" height="48" viewBox="0 0 48 48" fill="none" xmlns="http://www.w3.org/2000/svg">
<rect x="1.63355" y="1.63355" width="44.7329" height="44.7329" rx="22.3665" fill="white"/>
<rect x="1.63355" y="1.63355" width="44.7329" height="44.7329" rx="22.3665" stroke="black" stroke-width="3.2671"/>
<path fill-rule="evenodd" clip-rule="evenodd" d="M26.0409 20.3857C27.0012 19.9081 28.2231 19.205 29.4465 18.2416C29.7045 18.776 29.7327 19.2422 29.5998 19.6187C29.5057 19.8841 29.3282 20.1149 29.0948 20.2985C28.8421 20.4969 28.5265 20.6414 28.1776 20.7195C27.5156 20.8682 26.7427 20.7814 26.0409 20.3857ZM26.2074 25.2798L27.4786 26.0123C24.883 27.4634 24.1774 30.158 23.3392 32.7825C22.5011 30.158 21.7954 27.4634 19.1999 26.0123L20.4711 25.2798C20.5941 25.2335 20.6992 25.1495 20.7713 25.0399C20.8435 24.9303 20.8791 24.8007 20.8729 24.6697C20.7564 22.2118 21.4218 21.1249 22.3192 20.4424C22.6411 20.198 22.9925 20.0752 23.3392 20.0752C23.6859 20.0752 24.0373 20.198 24.3592 20.4424C25.2567 21.1249 25.922 22.2118 25.8055 24.6697C25.7994 24.8007 25.8349 24.9303 25.9071 25.0399C25.9793 25.1495 26.0844 25.2335 26.2074 25.2798ZM23.3392 9.23077C24.8086 9.27012 26.2817 9.55467 27.5601 10.1082C28.4454 10.492 29.2715 10.999 30.0195 11.6053C30.3573 11.879 30.6354 12.1434 30.9418 12.4477C31.7682 12.4762 32.9759 11.5605 33.5366 10.7036C32.5716 13.8591 28.1684 17.5855 25.12 19.0113C25.1188 19.0108 25.1179 19.0101 25.117 19.0095C24.5699 18.5928 23.9546 18.3844 23.3392 18.3844C22.7238 18.3844 22.1086 18.5928 21.5615 19.0095C21.5605 19.01 21.5597 19.0109 21.5584 19.0113C18.5099 17.5855 14.1068 13.8591 13.1419 10.7036C13.7025 11.5605 14.9102 12.4762 15.7365 12.4477C16.043 12.1435 16.3212 11.879 16.6589 11.6053C17.4069 10.999 18.2329 10.492 19.1182 10.1082C20.3968 9.55467 21.8699 9.27012 23.3392 9.23077ZM20.6375 20.3857C19.6772 19.9081 18.4552 19.205 17.2319 18.2416C16.974 18.776 16.9457 19.2422 17.0785 19.6187C17.1728 19.8841 17.3503 20.1149 17.5835 20.2985C17.8363 20.4969 18.1519 20.6414 18.5008 20.7195C19.1628 20.8682 19.9356 20.7814 20.6375 20.3857Z" fill="black"/>
<path fill-rule="evenodd" clip-rule="evenodd" d="M30.7862 17.0611C31.4597 16.3831 32.0532 15.6327 32.5304 14.9631L32.7727 15.4181C33.5529 16.9752 33.9583 18.526 33.9583 20.2713L33.9567 23.0407L33.9713 24.4764C34.0278 28.001 34.7923 31.5671 36.5242 34.8305L32.9007 31.9159L30.3368 36.0661L27.6432 33.5368L23.339 40.5042L19.0348 33.5369L16.3413 36.0662L13.7774 31.916L10.1538 34.8306C11.8857 31.5672 12.6502 28.0011 12.7068 24.4765L12.7215 23.0409L12.7198 20.2714C12.7198 18.526 13.1251 16.9752 13.9055 15.4182L14.1478 14.9632C14.625 15.6328 15.2183 16.3831 15.8919 17.0612L15.6815 17.497C15.2729 18.3434 15.1376 19.2899 15.4559 20.1899C15.6611 20.7697 16.0357 21.2669 16.5185 21.6464C16.9873 22.015 17.5421 22.2634 18.123 22.3939C18.5014 22.4789 18.8869 22.5138 19.2699 22.5019C19.1805 23.0072 19.1415 23.5313 19.139 24.0654L15.7209 26.0347L18.3586 27.5095C18.5694 27.6274 18.7701 27.7625 18.9586 27.9133C21.1332 29.8609 22.4406 35.6225 23.3391 38.4368C24.2377 35.6225 25.545 29.8609 27.7197 27.9133C27.9082 27.7624 28.1089 27.6274 28.3198 27.5095L30.9574 26.0347L27.5392 24.0654C27.5367 23.5313 27.4977 23.0072 27.4083 22.5019C27.7913 22.5138 28.1768 22.4789 28.5552 22.3939C29.1361 22.2634 29.691 22.015 30.1597 21.6464C30.6425 21.2669 31.0171 20.7697 31.2222 20.1899C31.5406 19.2899 31.4052 18.3435 30.9967 17.497L30.7863 17.0612L30.7862 17.0611Z" fill="black"/>
</svg>
