<svg width="32" height="32" viewBox="0 0 32 32" fill="none" xmlns="http://www.w3.org/2000/svg">
<rect x="1.1994" y="1.08514" width="29.7154" height="29.7154" rx="14.8577" fill="white"/>
<rect x="1.1994" y="1.08514" width="29.7154" height="29.7154" rx="14.8577" stroke="black" stroke-width="2.17029"/>
<path d="M13.2709 17.5473L13.0198 21.0591C13.3791 21.0591 13.5347 20.9057 13.7213 20.7214L15.4057 19.1208L18.8961 21.6623C19.5362 22.017 19.9872 21.8302 20.1599 21.0768L22.4509 10.4027L22.4515 10.4021C22.6546 9.46123 22.1093 9.09331 21.4857 9.32412L8.01897 14.4505C7.09989 14.8052 7.11381 15.3146 7.86273 15.5454L11.3056 16.6102L19.3028 11.6348C19.6791 11.387 20.0213 11.5241 19.7399 11.7719L13.2709 17.5473Z" fill="black"/>
</svg>
