<svg width="48" height="48" viewBox="0 0 48 48" fill="none" xmlns="http://www.w3.org/2000/svg">
<rect x="1.63355" y="1.63355" width="44.7329" height="44.7329" rx="22.3665" fill="white"/>
<rect x="1.63355" y="1.63355" width="44.7329" height="44.7329" rx="22.3665" stroke="black" stroke-width="3.2671"/>
<path fill-rule="evenodd" clip-rule="evenodd" d="M21.5532 12.4946C19.9777 13.3148 18.6887 14.0089 18.689 14.0371C18.6897 14.11 22.4702 16.0235 22.6044 16.0188C22.6654 16.0168 23.1082 15.8131 23.5883 15.5662L24.4614 15.1174L25.4149 15.6072L26.3683 16.0972L27.9297 15.3959C30.2825 14.3393 30.5269 14.2235 30.4886 14.1846C30.4378 14.133 29.5939 13.6799 27.3043 12.4753C26.1978 11.893 25.1239 11.3222 24.9177 11.2067C24.7115 11.0911 24.5147 10.9982 24.4804 11C24.446 11.0018 23.1287 11.6744 21.5532 12.4946ZM14.643 16.0708L13.003 16.9175V20.6333C13.003 22.6771 13.0245 24.3492 13.0509 24.3492C13.0772 24.3492 13.8842 23.9996 14.844 23.5723L16.5893 22.7955V18.8787L17.4421 19.3431C18.0993 19.7006 18.7568 20.0574 19.4148 20.4134L20.5347 21.0194L21.033 20.7942C21.3455 20.6527 21.6574 20.5099 21.9687 20.3657C22.2092 20.2537 22.7996 19.9879 23.2807 19.7749C23.7618 19.5618 24.2071 19.3476 24.2702 19.2987C24.3541 19.2338 23.3313 18.6689 20.487 17.2092C18.343 16.1088 16.5201 15.212 16.436 15.2163C16.3519 15.2206 15.5451 15.6051 14.643 16.0708ZM30.7842 16.3086C29.6672 16.8126 28.7525 17.245 28.7514 17.2697C28.7505 17.2943 29.3593 17.6561 30.1044 18.0735C30.8495 18.491 31.4592 18.855 31.4592 18.8824C31.4592 18.9097 30.7998 19.229 29.994 19.592C29.1882 19.955 27.1513 20.8743 25.4675 21.635L19.8256 24.1838C18.4064 24.8249 17.1272 25.4029 16.9829 25.4682C14.0841 26.7797 13.2873 27.1436 13.1779 27.2061C13.0679 27.269 13.0429 27.6344 13.0234 29.4682L13 31.6554L14.4666 32.4023L15.9332 33.1491L17.9669 32.2318C19.0855 31.7274 20.0006 31.2882 20.0006 31.2558C20.0006 31.2236 19.7939 31.089 19.5414 30.9566C19.2887 30.8242 18.7672 30.5312 18.3824 30.3053C17.9975 30.0794 17.6138 29.8721 17.5295 29.8446C17.4453 29.8172 17.3776 29.7692 17.379 29.7379C17.3804 29.7068 18.2759 29.2816 19.369 28.7931C21.4919 27.8445 23.1166 27.1133 26.6046 25.5369C28.1643 24.8322 29.7241 24.1278 31.2842 23.4239C32.6553 22.8054 34.2494 22.083 34.8268 21.8187L35.8764 21.338L35.8997 19.1259L35.9232 16.9138L34.4357 16.1508C33.6175 15.7311 32.9182 15.3888 32.8815 15.39C32.8449 15.3912 31.9011 15.8045 30.7842 16.3086ZM35.4779 24.2891C35.2587 24.3961 34.8257 24.5964 34.5157 24.7342C34.2057 24.8721 33.6175 25.1373 33.2086 25.3238L32.4651 25.6627L32.4481 27.6048C32.4387 28.6729 32.3994 29.542 32.3606 29.5364C32.2726 29.5233 30.8792 28.8091 29.4784 28.0589C28.4674 27.5176 28.4039 27.4961 28.1663 27.6136C28.029 27.6817 27.2081 28.0496 26.3422 28.4314C25.4762 28.8132 24.7395 29.1505 24.7048 29.1811C24.6702 29.2116 26.4131 30.1556 28.5779 31.2791L32.5138 33.3218L34.1951 32.4525C35.1198 31.9745 35.9061 31.5385 35.9423 31.4836C36.0238 31.3603 36.0168 24.0776 35.9352 24.0874C35.9029 24.0913 35.6971 24.182 35.4779 24.2891ZM26.1672 32.8372C25.8756 32.9625 25.584 33.088 25.2925 33.2136C24.4123 33.5942 24.5848 33.6068 23.5376 33.0858C22.8401 32.7388 22.5395 32.6318 22.409 32.6837C22.3111 32.7227 21.4687 33.1015 20.5368 33.5255C19.6049 33.9494 18.8102 34.2963 18.7707 34.2963C18.3797 34.2963 19.0297 34.6844 21.5378 35.9489L24.4792 37.4317L25.7168 36.821C26.3975 36.4851 27.7705 35.8126 28.7679 35.3265C29.7652 34.8402 30.5689 34.4298 30.5539 34.4143C30.5387 34.3988 29.703 33.97 28.6967 33.4612L26.867 32.5363L26.1672 32.8372Z" fill="black"/>
</svg>
